<svg width="82" height="46" viewBox="0 0 82 46" fill="none" xmlns="http://www.w3.org/2000/svg">
<path d="M68.5597 31.4101L59.5447 15.1833H64.9167L71.0502 26.6423L76.7721 15.1833H82L66.0281 45.9591H60.7385L68.5597 31.4101Z" fill="#FF7A00"/>
<path d="M55.49 19.4804V35.1139H50.8589V19.4804H48.883V15.1833H50.8589V7.87811H55.49V15.1833H59.0919V19.4804H55.49Z" fill="#FF7A00"/>
<path d="M41.4734 19.4804V35.1139H36.8218V19.4804H35.1752V15.1833H36.8218V7.48932C36.8218 4.97924 37.2609 3.20581 38.1391 2.16904C39.3466 0.723013 41.1029 0 43.4081 0C44.2314 0 45.2674 0.238731 46.5161 0.716192V5.4226L46.0427 5.17705C45.041 4.6723 44.2177 4.41993 43.5728 4.41993C42.7495 4.41993 42.1938 4.71323 41.9056 5.29982C41.6175 5.87278 41.4734 6.97776 41.4734 8.61477V15.1833H46.5161V19.4804H41.4734Z" fill="#FF7A00"/>
<path d="M30.8117 15.1833V35.1139H26.1807V15.1833H30.8117ZM25.4809 6.89591C25.4809 6.09104 25.7759 5.39531 26.366 4.80872C26.956 4.22212 27.6627 3.92883 28.4859 3.92883C29.323 3.92883 30.0365 4.22212 30.6265 4.80872C31.2165 5.38167 31.5115 6.08422 31.5115 6.91637C31.5115 7.74852 31.2165 8.45789 30.6265 9.04448C30.0502 9.63108 29.3435 9.92438 28.5065 9.92438C27.6695 9.92438 26.956 9.63108 26.366 9.04448C25.7759 8.45789 25.4809 7.7417 25.4809 6.89591Z" fill="#FF7A00"/>
<path d="M20.3353 34.6432C20.3353 35.5845 20.301 36.4098 20.2324 37.1192C20.1775 37.8422 20.0952 38.4766 19.9854 39.0222C19.6561 40.5228 19.0112 41.812 18.0507 42.8897C16.2395 44.9632 13.749 46 10.5793 46C7.90361 46 5.7013 45.2838 3.97239 43.8514C2.18859 42.3781 1.15947 40.3387 0.88504 37.7331H5.53665C5.71503 38.7153 6.01004 39.4724 6.42169 40.0044C7.3822 41.2458 8.78179 41.8665 10.6205 41.8665C14.0097 41.8665 15.7043 39.7998 15.7043 35.6664V32.8834C13.8656 34.7524 11.7456 35.6868 9.34438 35.6868C6.61379 35.6868 4.37718 34.7046 2.63454 32.7402C0.878179 30.7485 0 28.2589 0 25.2714C0 22.3657 0.816432 19.8965 2.4493 17.8639C4.20566 15.7085 6.5246 14.6308 9.40612 14.6308C11.9309 14.6308 14.0303 15.5652 15.7043 17.4342V15.1833H20.3353V34.6432ZM15.8896 25.1895C15.8896 23.2524 15.3681 21.704 14.3253 20.5445C13.2687 19.3577 11.9172 18.7642 10.2706 18.7642C8.51422 18.7642 7.12835 19.4122 6.11295 20.7082C5.19361 21.8677 4.73394 23.3683 4.73394 25.21C4.73394 27.0243 5.19361 28.5113 6.11295 29.6708C7.11462 30.9395 8.5005 31.5738 10.2706 31.5738C12.0407 31.5738 13.4403 30.9327 14.4694 29.6504C15.4162 28.4908 15.8896 27.0039 15.8896 25.1895Z" fill="#FF7A00"/>
</svg>
